# xmcd
#
# Track frame offsets:
#	150
#	21932
#	43620
#	54522
#	67155
#	81432
#	95222
#	107217
#	118827
#	130882
#	145300
#	158267
#	187057
#	200802
#	214897
#	239952
#	251637
#	271335
#	288605
#
# Disc length: 4336 seconds
#
# Revision: 1329088568
# Processed by: cddbd v1.5.2PL0 Copyright (c) Steve Scherf et al.
# Submitted via: EZCDAudioConverter 2.1.7.1
#
DISCID=3a10ee13
DTITLE=Siegel Schwall Band - The Complete Vanguard Recordings And More [CD3
DTITLE=)
DYEAR=1968
DGENRE=Blues
TTITLE0=Shake For Me
TTITLE1=My Starter Won't Start
TTITLE2=Jim Jam
TTITLE3=Louise, Louise Blues
TTITLE4=Wouldn't Quit You
TTITLE5=You Can't Run That Fast
TTITLE6=Think
TTITLE7=334-3599
TTITLE8=Rain Falling Down
TTITLE9=Get Away Man
TTITLE10=Yes, I Love You
TTITLE11=I Don't Want You To Be My Girl
TTITLE12=Do You Remember
TTITLE13=Geronimo
TTITLE14=Angel Food Cake
TTITLE15=Walk In My Mind
TTITLE16=Song
TTITLE17=Tell Me
TTITLE18=A Sunshine Day In My Mind
EXTD=
EXTT0=
EXTT1=
EXTT2=
EXTT3=
EXTT4=
EXTT5=
EXTT6=
EXTT7=
EXTT8=
EXTT9=
EXTT10=
EXTT11=
EXTT12=
EXTT13=
EXTT14=
EXTT15=
EXTT16=
EXTT17=
EXTT18=
PLAYORDER=
